# AST/ASF file generated using VICON BodyLanguage
# -----------------------------------------------
:version 1.10
:name VICON
:units
  mass 1.0
  length 0.45
  angle deg
:documentation
   .ast/.asf automatically generated from VICON data using
   VICON BodyBuilder and BodyLanguage model FoxedUp or BRILLIANT.MOD
:root
   order TX TY TZ RX RY RZ
   axis XYZ
   position 0 0 0  
   orientation 0 0 0 
:bonedata
  begin
     id 1 
     name lhipjoint
     direction 0.661853 -0.702389 0.261917 
     length 2.64193 
     axis 0 0 0  XYZ
  end
  begin
     id 2 
     name lfemur
     direction 0.34202 -0.939693 0  
     length 7.01722  
     axis 0 0 20  XYZ
    dof rx ry rz
    limits (-160.0 20.0)
           (-70.0 70.0)
           (-60.0 70.0)
  end
  begin
     id 3 
     name ltibia
     direction 0.34202 -0.939693 0   
     length 8.25008   
     axis 0 0 20   XYZ
    dof rx
    limits (-10.0 170.0)
  end
  begin
     id 4 
     name lfoot
     direction 0.0709916 -0.195048 0.978221   
     length 2.31941   
     axis -90 7.62852e-016 20   XYZ
    dof rx rz
    limits (-45.0 90.0)
           (-70.0 20.0)
  end
  begin
     id 5 
     name ltoes
     direction 1.53586e-011 -4.22017e-011 1   
     length 1.16486   
     axis -90 7.62852e-016 20   XYZ
    dof rx
    limits (-90.0 20.0)
  end
  begin
     id 6 
     name rhipjoint
     direction -0.638185 -0.721362 0.268992   
     length 2.57244  
     axis 0 0 0  XYZ 
  end
  begin
     id 7 
     name rfemur
     direction -0.34202 -0.939693 0   
     length 7.07017   
     axis 0 0 -20   XYZ
    dof rx ry rz
    limits (-160.0 20.0)
           (-70.0 70.0)
           (-70.0 60.0)
  end
  begin
     id 8 
     name rtibia
     direction -0.34202 -0.939693 0   
     length 8.20386   
     axis 0 0 -20   XYZ
    dof rx
    limits (-10.0 170.0)
 end
 begin
     id 9 
     name rfoot
     direction -0.0822429 -0.225961 0.970658   
     length 2.32215  
     axis -90 -7.62852e-016 -20   XYZ
    dof rx rz
    limits (-45.0 90.0)
           (-20.0 70.0)
  end
  begin
     id 10 
     name rtoes
     direction -1.53597e-011 -4.21689e-011 1   
     length 1.16333   
     axis -90 -7.62852e-016 -20   XYZ
    dof rx
    limits (-90.0 20.0)
  end
  begin
     id 11 
     name lowerback
     direction -0.0131557 0.998589 -0.0514484   
     length 2.14993   
     axis 0 0 0   XYZ
    dof rx ry rz
    limits (-20.0 45.0)
           (-30.0 30.0)
           (-30.0 30.0)
  end
  begin
     id 12 
     name upperback
     direction -0.000776481 0.999993 0.00352685   
     length 2.15301   
     axis 0 0 0   XYZ
    dof rx ry rz
    limits (-20.0 45.0)
           (-30.0 30.0)
           (-30.0 30.0)
  end
  begin
     id 13 
     name thorax
     direction 0.00438186 0.999609 0.0276143   
     length 2.15424   
     axis 0 0 0   XYZ
    dof rx ry rz
    limits (-20.0 45.0)
           (-30.0 30.0)
           (-30.0 30.0)
  end
  begin
     id 14 
     name lowerneck
     direction -0.0488006 0.998094 0.0377807   
     length 1.90481   
     axis 0 0 0   XYZ
    dof rx ry rz
    limits (-20.0 45.0)
           (-30.0 30.0)
           (-30.0 30.0)
  end
  begin
     id 15 
     name upperneck
     direction 0.0443769 0.990702 -0.12861   
     length 1.91305   
     axis 0 0 0   XYZ
    dof rx ry rz
    limits (-20.0 45.0)
           (-30.0 30.0)
           (-30.0 30.0)
  end
  begin
     id 16
     name head
     direction 0.0165599 0.998647 -0.0492982  
     length 1.92369  
     axis 0 0 0   XYZ
    dof rx ry rz
    limits (-20.0 45.0)
           (-30.0 30.0)
           (-30.0 30.0)
  end
  begin
     id 17 
     name lclavicle
     direction 0.911936 0.410197 -0.0105506  
     length 3.52622  
     axis 0 0 0   XYZ
    dof ry rz
    limits (-20.0 10.0)
           (0.0 20.0)
  end
  begin
     id 18 
     name lhumerus
     direction 1 -4.48974e-011 -2.48591e-028   
     length 5.47651   
     axis 180 -30 -90   XYZ
    dof rx ry rz
    limits (-60.0 90.0)
           (-90.0 90.0)
           (-90.0 90.0)
  end
  begin
     id 19
     name lradius
     direction 1 -4.48938e-011 -4.40099e-027   
     length 3.09058   
     axis 180 -30 -90   XYZ
    dof rx
    limits (-10.0 170.0)
  end
  begin
     id 20
     name lwrist
     direction 1 -4.49042e-011 -2.99852e-027   
     length 1.54529   
     axis 1.95339e-015 90 90   XYZ
    dof ry
    limits (-180.0 0.0)
 end
  begin
     id 21 
     name lhand
     direction 1 -4.48815e-011 -5.98193e-027   
     length 0.771611   
     axis 3.82337e-015 90 90   XYZ
    dof rx rz
    limits (-90.0 90.0)
           (-45.0 45.0)
  end
  begin
     id 22 
     name lfingers
     direction 1 -4.49034e-011 -1.1993e-026   
     length 0.622093   
     axis 7.64668e-015 90 90   XYZ
    dof rx
    limits (0.0 90.0)
  end
  begin
     id 23
     name lthumb
     direction 0.707107 -6.34867e-011 0.707107   
     length 0.893204   
     axis -90 45 -1.62303e-014   XYZ
    dof rx rz
    limits (-45.0 45.0)
           (-45.0 45.0)
  end
  begin
     id 24 
     name rclavicle
     direction -0.93442 0.355634 -0.0195692   
     length 3.62463  
     axis 0 0 0   XYZ 
    dof ry rz
    limits (-10.0 20.0)
           (-20.0 0.0)
  end
  begin
     id 25 
     name rhumerus
     direction -1 -4.48957e-011 -1.19147e-027  
     length 5.14182   
     axis 180 30 90   XYZ
    dof rx ry rz
    limits (-90.0 60.0)
           (-90.0 90.0)
           (-90.0 90.0)
  end
  begin
     id 26 
     name rradius
     direction -1 -4.48952e-011 -3.81062e-027   
     length 3.35565   
     axis 180 30 90   XYZ
    dof rx
    limits (-10.0 170.0)
  end
  begin
     id 27 
     name rwrist
     direction -1 -4.48973e-011 -2.99621e-027   
     length 1.67782   
     axis 1.95339e-015 -90 -90   XYZ
    dof ry
    limits (-180.0 0.0)
  end
  begin
     id 28
     name rhand
     direction -1 -4.48895e-011 -5.98727e-027   
     length 0.801042   
     axis 3.82337e-015 -90 -90   XYZ
    dof rx rz
    limits (-90.0 90.0)
           (-45.0 45.0)
  end
  begin
     id 29
     name rfingers
     direction -1 -4.49065e-011 -1.19972e-026   
     length 0.645821   
     axis 7.64668e-015 -90 -90   XYZ
    dof rx
    limits (0.0 90.0)
  end
  begin
     id 30
     name rthumb
     direction -0.707107 -6.34957e-011 0.707107   
     length 0.927273   
     axis -90 -45 1.62303e-014   XYZ
    dof rx rz
    limits (-45.0 45.0)
           (-45.0 45.0)
  end
:hierarchy
  begin
    root lhipjoint rhipjoint lowerback
    lhipjoint lfemur
    lfemur ltibia
    ltibia lfoot
    lfoot ltoes
    rhipjoint rfemur
    rfemur rtibia
    rtibia rfoot
    rfoot rtoes
    lowerback upperback
    upperback thorax
    thorax lowerneck lclavicle rclavicle
    lowerneck upperneck
    upperneck head
    lclavicle lhumerus
    lhumerus lradius
    lradius lwrist
    lwrist lhand lthumb
    lhand lfingers
    rclavicle rhumerus
    rhumerus rradius
    rradius rwrist
    rwrist rhand rthumb
    rhand rfingers
  end

#!OML:ASF E:\Style4\Style4.ASF
:FULLY-SPECIFIED
:DEGREES
1
root -0.311296 17.7582 -2.77966 4.00113 0.744254 1.71365
lowerback 9.94461 2.26639 0.0758716
upperback 3.97201 3.00834 0.0203611
thorax -1.44081 1.49986 -0.351135
lowerneck -1.61051 -5.58973 -6.9411
upperneck 4.80209 -7.48476 5.24849
head 2.33709 -3.74219 2.70745
rclavicle 5.64548e-014 -1.51076e-014
rhumerus 27.3292 17.0252 -56.3938
rradius 57.0267
rwrist -71.6428
rhand -13.2549 12.6689
rfingers 7.12502
rthumb 12.8475 -16.9157
lclavicle 5.64548e-014 -1.51076e-014
lhumerus 31.7266 -29.8078 58.1166
lradius 64.5893
lwrist 58.7394
lhand -3.91489 30.5359
lfingers 7.12502
lthumb 21.8357 59.3239
rfemur -21.8787 1.24391 16.9662
rtibia 34.5473
rfoot -15.8906 -13.3464
rtoes -11.2824
lfemur -19.21 -0.517024 -20.3462
ltibia 32.9463
lfoot -17.8614 9.7638
ltoes -14.6505
2
root -0.313305 17.7594 -2.78474 4.02892 0.765481 1.78326
lowerback 9.9472 2.27033 -0.0133374
upperback 3.95227 3.00571 0.0356319
thorax -1.46811 1.49768 -0.28593
lowerneck -1.38933 -5.56731 -7.01699
upperneck 4.6357 -7.46563 5.33125
head 2.24824 -3.73483 2.75705
rclavicle 2.43511e-014 -5.1684e-015
rhumerus 27.3567 17.0225 -56.3464
rradius 56.9534
rwrist -71.4526
rhand -13.0065 12.7516
rfingers 7.12502
rthumb 13.0869 -16.8178
lclavicle 2.43511e-014 -5.1684e-015
lhumerus 31.7685 -29.8038 58.0498
lradius 64.6854
lwrist 58.818
lhand -4.11057 30.609
lfingers 7.12502
lthumb 21.6478 59.4189
rfemur -21.9738 1.24011 16.8943
rtibia 34.6186
rfoot -15.8862 -13.2658
rtoes -11.3819
lfemur -19.2755 -0.440359 -20.4079
ltibia 32.9292
lfoot -17.8783 9.76217
ltoes -15.0542
3
root -0.316377 17.7575 -2.79159 4.06739 0.788567 1.82469
lowerback 9.98007 2.29534 -0.0566538
upperback 3.91844 3.03441 0.021056
thorax -1.52246 1.51157 -0.282265
lowerneck -1.23682 -5.57122 -6.92272
upperneck 4.53883 -7.47871 5.29893
head 2.18278 -3.74197 2.73304
rclavicle 5.58585e-014 -2.18663e-014
rhumerus 27.322 16.9153 -56.4045
rradius 57.0053
rwrist -71.4883
rhand -13.09 12.5154
rfingers 7.12502
rthumb 13.0065 -17.0591
lclavicle 5.58585e-014 -2.18663e-014
lhumerus 31.8329 -29.8597 57.9762
lradius 64.7473
lwrist 58.85
lhand -4.17305 30.5947
lfingers 7.12502
lthumb 21.5878 59.4114
rfemur -22.0812 1.25179 16.8578
rtibia 34.6941
rfoot -15.8667 -13.2647
rtoes -11.3121
lfemur -19.392 -0.396428 -20.441
ltibia 32.9935
lfoot -17.863 9.67783
ltoes -14.9342
4
root -0.318162 17.7537 -2.79732 4.11496 0.819333 1.76739
lowerback 10.0073 2.24551 0.00562356
upperback 3.93796 2.97556 0.0838711
thorax -1.51757 1.4823 -0.246494
lowerneck -1.39712 -5.52605 -7.0596
upperneck 4.5765 -7.40386 5.27201
head 2.22473 -3.70568 2.74737
rclavicle -1.13307e-014 6.75868e-015
rhumerus 27.5444 16.9964 -56.2913
rradius 57.0986
rwrist -71.639
rhand -13.3207 12.3541
rfingers 7.12502
rthumb 12.7841 -17.2345
lclavicle -1.13307e-014 6.75868e-015
lhumerus 31.8583 -29.6352 58.0241
lradius 64.7198
lwrist 58.878
lhand -4.19476 30.5178
lfingers 7.12502
lthumb 21.5669 59.337
rfemur -22.2043 1.27082 16.9319
rtibia 34.7909
rfoot -15.8363 -13.3709
rtoes -11.5227
lfemur -19.5029 -0.34441 -20.3728
ltibia 33.0382
lfoot -17.8175 9.61675
ltoes -14.9587
5
root -0.31817 17.754 -2.80007 4.11982 0.824636 1.76455
lowerback 10.0192 2.16559 -0.052527
upperback 3.99685 2.86681 0.199554
thorax -1.47227 1.42704 -0.0817184
lowerneck -1.63806 -5.45562 -7.35319
upperneck 4.64877 -7.28653 5.27578
head 2.29939 -3.64968 2.80056
rclavicle -1.2921e-015 0
rhumerus 27.8915 17.2319 -56.0831
rradius 57.0721
rwrist -71.5385
rhand -13.2199 12.5434
rfingers 7.12502
rthumb 12.8812 -17.0391
lclavicle -1.2921e-015 0
lhumerus 31.8173 -29.2447 58.1443
lradius 64.7424
lwrist 58.9705
lhand -4.28613 30.4252
lfingers 7.12502
lthumb 21.4792 59.2543
rfemur -22.2492 1.24812 16.9356
rtibia 34.9143
rfoot -15.936 -13.2855
rtoes -11.0155
lfemur -19.5405 -0.314745 -20.3762
ltibia 33.075
lfoot -17.7885 9.57567
ltoes -14.8488
6
root -0.317872 17.7557 -2.80304 4.12181 0.812518 1.79441
lowerback 10.0079 2.15409 -0.112431
upperback 4.00322 2.84686 0.236519
thorax -1.46427 1.41641 -0.00730508
lowerneck -1.5559 -5.42442 -7.44919
upperneck 4.61434 -7.24803 5.31359
head 2.2769 -3.63241 2.83494
rclavicle 2.20651e-014 1.59028e-015
rhumerus 28.1003 17.3689 -55.9039
rradius 56.9907
rwrist -71.5967
rhand -13.1858 12.748
rfingers 7.12502
rthumb 12.9141 -16.8324
lclavicle 2.20651e-014 1.59028e-015
lhumerus 31.7891 -29.128 58.1985
lradius 64.7854
lwrist 59.0176
lhand -4.29883 30.4438
lfingers 7.12502
lthumb 21.467 59.2744
rfemur -22.2625 1.24653 16.901
rtibia 35.0463
rfoot -16.1236 -13.0428
rtoes -9.87786
lfemur -19.5812 -0.293658 -20.4225
ltibia 33.1131
lfoot -17.7073 9.59062
ltoes -14.619
7
root -0.317798 17.7551 -2.80619 4.13188 0.835387 1.86007
lowerback 10.0265 2.15353 -0.177495
upperback 3.97808 2.84009 0.235928
thorax -1.50355 1.41251 0.0278242
lowerneck -1.43584 -5.39254 -7.49254
upperneck 4.62359 -7.21628 5.39123
head 2.26193 -3.61748 2.87361
rclavicle 1.59028e-015 -7.95139e-016
rhumerus 28.1983 17.4546 -55.8035
rradius 56.9788
rwrist -71.8588
rhand -13.3796 12.9524
rfingers 7.12502
rthumb 12.7272 -16.6397
lclavicle 1.59028e-015 -7.95139e-016
lhumerus 31.7486 -29.0994 58.2383
lradius 64.8242
lwrist 58.9999
lhand -4.22113 30.3609
lfingers 7.12502
lthumb 21.5416 59.1829
rfemur -22.3061 1.22227 16.8285
rtibia 35.1753
rfoot -16.2293 -12.9178
rtoes -9.15218
lfemur -19.6182 -0.305618 -20.5
ltibia 33.138
lfoot -17.6931 9.54482
ltoes -14.2614
8
root -0.318456 17.7533 -2.80938 4.159 0.85271 1.8619
lowerback 10.0364 2.13852 -0.174342
upperback 3.9674 2.8206 0.239988
thorax -1.52005 1.40278 0.031747
lowerneck -1.3965 -5.35618 -7.49717
upperneck 4.63267 -7.17207 5.4241
head 2.25648 -3.59548 2.88833
rclavicle 1.11319e-014 4.37326e-015
rhumerus 28.2337 17.5008 -55.7726
rradius 57.0443
rwrist -72.0259
rhand -13.4542 13.116
rfingers 7.12502
rthumb 12.6554 -16.4806
lclavicle 1.11319e-014 4.37326e-015
lhumerus 31.7284 -29.0263 58.2182
lradius 64.8778
lwrist 58.946
lhand -4.2079 30.2868
lfingers 7.12502
lthumb 21.5543 59.1073
rfemur -22.4055 1.19922 16.8341
rtibia 35.2975
rfoot -16.2414 -12.9574
rtoes -9.15827
lfemur -19.684 -0.266754 -20.4994
ltibia 33.1699
lfoot -17.6715 9.51458
ltoes -14.3329
9
root -0.319037 17.7516 -2.81193 4.15588 0.876839 1.86008
lowerback 10.0538 2.1538 -0.118372
upperback 3.98643 2.84529 0.210156
thorax -1.50571 1.4157 -0.0332694
lowerneck -1.32572 -5.35121 -7.33013
upperneck 4.54002 -7.16893 5.34799
head 2.20044 -3.59286 2.83394
rclavicle 0 9.93923e-015
rhumerus 28.239 17.3861 -55.8053
rradius 57.0409
rwrist -71.9672
rhand -13.4666 13.0944
rfingers 7.12502
rthumb 12.6434 -16.5029
lclavicle 0 9.93923e-015
lhumerus 31.847 -29.0248 58.1556
lradius 64.9307
lwrist 58.9239
lhand -4.24716 30.3258
lfingers 7.12502
lthumb 21.5166 59.1507
rfemur -22.4552 1.17047 16.8433
rtibia 35.3849
rfoot -16.2458 -12.9924
rtoes -9.28344
lfemur -19.7194 -0.244306 -20.5003
ltibia 33.2162
lfoot -17.6284 9.50939
ltoes -14.6067
10
root -0.319558 17.7484 -2.81478 4.13623 0.859845 1.92834
lowerback 10.1209 2.21682 -0.0908425
upperback 4.01976 2.92927 0.13546
thorax -1.50261 1.4582 -0.136924
lowerneck -1.38747 -5.39781 -7.17862
upperneck 4.52765 -7.23067 5.32969
head 2.20357 -3.62037 2.79598
rclavicle 1.47101e-014 -3.57812e-015
rhumerus 28.0955 17.1384 -55.8798
rradius 57.1254
rwrist -71.8949
rhand -13.4149 13.082
rfingers 7.12502
rthumb 12.6932 -16.5122
lclavicle 1.47101e-014 -3.57812e-015
lhumerus 32.1246 -29.1228 58.0268
lradius 64.9677
lwrist 59.0186
lhand -4.31675 30.38
lfingers 7.12502
lthumb 21.4498 59.2125
rfemur -22.4898 1.17217 16.7672
rtibia 35.4599
rfoot -16.297 -12.9449
rtoes -9.15872
lfemur -19.7331 -0.221502 -20.5765
ltibia 33.2656
lfoot -17.6371 9.50365
ltoes -14.6535
